:FULLY-SPECIFIED
:FORCE-ALL-JOINTS-BE-3DOF
:DEGREES
951
root 1.14203 15.2722 32.7273 6.60725 -3.75258 4.72159
lfemur 6.80656 1.44616 3.92656
ltibia 1.53874 -0 0
lfoot -29.3532 -13.8612 -0.00143408
ltoes -31.7623 0 0
rfemur -32.0422 -15.4403 -7.26972
rtibia 49.456 -0 0
rfoot -20.9084 4.442 -0.0191887
rtoes -42.4342 0 0
lowerback -2.12224 -0.517374 0.510382
upperback -1.39521 -0.709324 -6.72541
thorax -0.340985 -0.39408 -7.30639
lowerneck -6.46435 0.688371 4.6329
upperneck 1.02887 0.452227 3.4435
head 1.4129 0.320195 0.307041
lclavicle -8.69683e-15 2.70347e-14 0
lhumerus -59.1663 -44.1813 113.192
lradius 55.4223 -0 0
lwrist 24.7539 0 0
lhand 40.0635 24.0137 0.00545197
lfingers 7.12502 -0 0
lthumb 62.4451 34.9209 0.000448411
rclavicle -8.69683e-15 2.70347e-14 0
rhumerus 4.1385 -32.5954 -2.36794
rradius 29.0764 -0 0
rwrist -14.4682 0 0
rhand -37.3498 -49.5042 0.0399095
rfingers 7.12502 -0 0
rthumb -10.4106 -79.1922 0.0331431
952
root 1.12935 15.2619 32.7201 6.56199 -3.91851 4.67579
lfemur 7.01688 1.57669 4.04649
ltibia 1.38486 -0 0
lfoot -29.3733 -13.7246 -0.00150578
ltoes -31.9064 0 0
rfemur -32.2264 -15.529 -7.13541
rtibia 49.6499 -0 0
rfoot -21.1162 4.61839 -0.0201483
rtoes -42.343 0 0
lowerback -2.07073 -0.541617 0.524515
upperback -1.36563 -0.742272 -6.67865
thorax -0.343039 -0.410163 -7.26421
lowerneck -6.41599 0.753229 4.74835
upperneck 0.971675 0.534693 3.45978
head 1.38692 0.359968 0.295037
lclavicle -8.69683e-15 2.70347e-14 0
lhumerus -59.157 -44.2139 113.296
lradius 55.3874 -0 0
lwrist 24.6612 0 0
lhand 39.9695 23.9029 0.00572458
lfingers 7.12502 -0 0
lthumb 62.3671 34.9099 0.000470831
rclavicle -8.69683e-15 2.70347e-14 0
rhumerus 4.23319 -31.9429 -2.01404
rradius 29.0225 -0 0
rwrist -14.2972 0 0
rhand -36.8585 -49.349 0.0419059
rfingers 7.12502 -0 0
rthumb -9.93662 -79.0586 0.0348009
953
root 1.11667 15.2516 32.7129 6.51685 -4.08446 4.63011
lfemur 7.22749 1.70677 4.1669
ltibia 1.23099 -0 0
lfoot -29.3934 -13.5881 -0.00152969
ltoes -32.0505 0 0
rfemur -32.4109 -15.6173 -7.00075
rtibia 49.8439 -0 0
rfoot -21.324 4.79477 -0.0204681
rtoes -42.2518 0 0
lowerback -2.01923 -0.565873 0.538627
upperback -1.33608 -0.775243 -6.63191
thorax -0.345105 -0.426244 -7.22203
lowerneck -6.3675 0.817991 4.86385
upperneck 0.914498 0.617176 3.47599
head 1.36092 0.399734 0.283015
lclavicle -8.69683e-15 2.70347e-14 0
lhumerus -59.1478 -44.2465 113.399
lradius 55.3525 -0 0
lwrist 24.5685 0 0
lhand 39.8756 23.7921 0.00581545
lfingers 7.12502 -0 0
lthumb 62.289 34.8989 0.000478305
rclavicle -8.69683e-15 2.70347e-14 0
rhumerus 4.33193 -31.2909 -1.66136
rradius 28.9686 -0 0
rwrist -14.1262 0 0
rhand -36.3672 -49.1938 0.0425713
rfingers 7.12502 -0 0
rthumb -9.46262 -78.925 0.0353535
954
root 1.10399 15.2414 32.7056 6.47184 -4.25046 4.58455
lfemur 7.43839 1.83641 4.28779
ltibia 1.07712 -0 0
lfoot -29.4134 -13.4515 -0.00150578
ltoes -32.1945 0 0
rfemur -32.5957 -15.7051 -6.86573
rtibia 50.0379 -0 0
rfoot -21.5318 4.97116 -0.0201483
rtoes -42.1607 0 0
lowerback -1.96773 -0.590141 0.552716
upperback -1.30656 -0.808239 -6.58519
thorax -0.347182 -0.442324 -7.17985
lowerneck -6.31888 0.882654 4.97941
upperneck 0.857343 0.699675 3.49211
head 1.33492 0.439496 0.270975
lclavicle -8.69683e-15 2.70347e-14 0
lhumerus -59.1387 -44.2791 113.503
lradius 55.3176 -0 0
lwrist 24.4757 0 0
lhand 39.7816 23.6813 0.00572458
lfingers 7.12502 -0 0
lthumb 62.211 34.8879 0.000470831
rclavicle -8.69683e-15 2.70347e-14 0
rhumerus 4.43466 -30.6395 -1.30976
rradius 28.9147 -0 0
rwrist -13.9551 0 0
rhand -35.876 -49.0385 0.0419059
rfingers 7.12502 -0 0
rthumb -8.98863 -78.7914 0.0348009
